<svg id="Layer_2" data-name="Layer 2" xmlns="http://www.w3.org/2000/svg" viewBox="0 0 327.1 327.02"><defs><style>.cls-1{fill:#fff;}</style></defs><path class="cls-1" d="M286.57,350.45c-.51-7.88-1-15.45-1.51-23A246.24,246.24,0,0,0,275,273.62,265.92,265.92,0,0,0,199.5,152.81,265,265,0,0,0,70.25,86.69,250.38,250.38,0,0,0,20.89,81.5c-4.37,0-4.38-.06-4.38-4.3q0-24.11,0-48.22c0-5.22,0-5.32,5.1-5.14a378.7,378.7,0,0,1,54.55,5.54,322.53,322.53,0,0,1,90.66,31,319.82,319.82,0,0,1,61.66,41.53q79.65,68.3,105.46,169.92a274.21,274.21,0,0,1,8.3,50.86c.52,8.44.85,16.88,1.3,25.32.09,1.8-.32,2.8-2.47,2.8-17.7-.07-35.4,0-53.1-.07A8.35,8.35,0,0,1,286.57,350.45Z" transform="translate(-16.45 -23.79)"/><path class="cls-1" d="M173.77,350.61c-1.84-12.33-2.48-24.49-5.58-36-16.87-62.44-57-101.46-120-116.33C39,196.13,29.31,195.9,19.84,195c-2.46-.22-3.4-.76-3.38-3.38q.15-25.4,0-50.81c0-2.74,1.07-3.17,3.45-3.17,26.88,0,52.65,5.55,77.48,15.66a208.62,208.62,0,0,1,74.5,51.19c27.61,29.48,45.72,63.94,53.79,103.65a255.33,255.33,0,0,1,4.45,38.66c.14,2.81-.5,4-3.71,4-16.72-.16-33.44-.07-50.16-.08C175.29,350.73,174.33,350.64,173.77,350.61Z" transform="translate(-16.45 -23.79)"/><path class="cls-1" d="M116.44,346c-1.88.09-3,.19-4.21.19H25.31c-4.19,0-4.2,0-4.2-4.34q0-43.14,0-86.28c0-4.45,0-4.63,4.49-4.38,27.1,1.51,49.76,12.35,67.67,32.76a92.13,92.13,0,0,1,21.87,46.41C116,335.39,116,340.59,116.44,346Z" transform="translate(-16.45 -23.79)"/></svg>